<mxfile host="Electron" agent="Mozilla/5.0 (Windows NT 10.0; Win64; x64) AppleWebKit/537.36 (KHTML, like Gecko) draw.io/24.7.8 Chrome/128.0.6613.36 Electron/32.0.1 Safari/537.36" version="24.7.8">
  <diagram name="Pagina-1" id="Uoi0y8fvQ4_JoI1ym9FA">
    <mxGraphModel dx="2625" dy="1553" grid="1" gridSize="10" guides="1" tooltips="1" connect="1" arrows="1" fold="1" page="1" pageScale="1" pageWidth="15000" pageHeight="15000" math="0" shadow="0">
      <root>
        <mxCell id="0" />
        <mxCell id="1" parent="0" />
        <mxCell id="zcGV5km0rDXlHKQMvc85-136" style="edgeStyle=orthogonalEdgeStyle;rounded=0;orthogonalLoop=1;jettySize=auto;html=1;exitX=0.5;exitY=1;exitDx=0;exitDy=0;entryX=0;entryY=0.5;entryDx=0;entryDy=0;fontFamily=Helvetica;fontSize=12;fontColor=default;labelBackgroundColor=#ffffff;resizable=0;" edge="1" parent="1" source="zcGV5km0rDXlHKQMvc85-5" target="zcGV5km0rDXlHKQMvc85-9">
          <mxGeometry relative="1" as="geometry" />
        </mxCell>
        <mxCell id="zcGV5km0rDXlHKQMvc85-141" style="edgeStyle=orthogonalEdgeStyle;rounded=0;orthogonalLoop=1;jettySize=auto;html=1;exitX=0.5;exitY=1;exitDx=0;exitDy=0;entryX=1;entryY=0.5;entryDx=0;entryDy=0;fontFamily=Helvetica;fontSize=12;fontColor=default;labelBackgroundColor=#ffffff;resizable=0;" edge="1" parent="1" source="zcGV5km0rDXlHKQMvc85-5" target="zcGV5km0rDXlHKQMvc85-139">
          <mxGeometry relative="1" as="geometry" />
        </mxCell>
        <mxCell id="zcGV5km0rDXlHKQMvc85-5" value="Language Model" style="rounded=0;whiteSpace=wrap;html=1;snapToPoint=1;points=[[0.1,0],[0.2,0],[0.3,0],[0.4,0],[0.5,0],[0.6,0],[0.7,0],[0.8,0],[0.9,0],[0,0.1],[0,0.3],[0,0.5],[0,0.7],[0,0.9],[0.1,1],[0.2,1],[0.3,1],[0.4,1],[0.5,1],[0.6,1],[0.7,1],[0.8,1],[0.9,1],[1,0.1],[1,0.3],[1,0.5],[1,0.7],[1,0.9]];" vertex="1" parent="1">
          <mxGeometry x="8530" y="6750" width="120" height="30" as="geometry" />
        </mxCell>
        <mxCell id="zcGV5km0rDXlHKQMvc85-13" style="edgeStyle=orthogonalEdgeStyle;rounded=0;orthogonalLoop=1;jettySize=auto;html=1;exitX=0.5;exitY=1;exitDx=0;exitDy=0;entryX=0.5;entryY=0;entryDx=0;entryDy=0;" edge="1" parent="1" source="zcGV5km0rDXlHKQMvc85-9" target="zcGV5km0rDXlHKQMvc85-11">
          <mxGeometry relative="1" as="geometry" />
        </mxCell>
        <mxCell id="zcGV5km0rDXlHKQMvc85-14" style="edgeStyle=orthogonalEdgeStyle;rounded=0;orthogonalLoop=1;jettySize=auto;html=1;exitX=0.5;exitY=1;exitDx=0;exitDy=0;" edge="1" parent="1" source="zcGV5km0rDXlHKQMvc85-9" target="zcGV5km0rDXlHKQMvc85-12">
          <mxGeometry relative="1" as="geometry" />
        </mxCell>
        <mxCell id="zcGV5km0rDXlHKQMvc85-16" style="edgeStyle=orthogonalEdgeStyle;rounded=0;orthogonalLoop=1;jettySize=auto;html=1;exitX=0.5;exitY=1;exitDx=0;exitDy=0;" edge="1" parent="1" source="zcGV5km0rDXlHKQMvc85-9" target="zcGV5km0rDXlHKQMvc85-15">
          <mxGeometry relative="1" as="geometry" />
        </mxCell>
        <mxCell id="zcGV5km0rDXlHKQMvc85-18" style="edgeStyle=orthogonalEdgeStyle;rounded=0;orthogonalLoop=1;jettySize=auto;html=1;exitX=0.5;exitY=1;exitDx=0;exitDy=0;entryX=0.5;entryY=0;entryDx=0;entryDy=0;" edge="1" parent="1" source="zcGV5km0rDXlHKQMvc85-9" target="zcGV5km0rDXlHKQMvc85-17">
          <mxGeometry relative="1" as="geometry" />
        </mxCell>
        <mxCell id="zcGV5km0rDXlHKQMvc85-9" value="Large Language Model" style="rounded=0;whiteSpace=wrap;html=1;snapToPoint=1;points=[[0.1,0],[0.2,0],[0.3,0],[0.4,0],[0.5,0],[0.6,0],[0.7,0],[0.8,0],[0.9,0],[0,0.1],[0,0.3],[0,0.5],[0,0.7],[0,0.9],[0.1,1],[0.2,1],[0.3,1],[0.4,1],[0.5,1],[0.6,1],[0.7,1],[0.8,1],[0.9,1],[1,0.1],[1,0.3],[1,0.5],[1,0.7],[1,0.9]];" vertex="1" parent="1">
          <mxGeometry x="8750" y="6840" width="130" height="40" as="geometry" />
        </mxCell>
        <mxCell id="zcGV5km0rDXlHKQMvc85-43" style="edgeStyle=orthogonalEdgeStyle;rounded=0;orthogonalLoop=1;jettySize=auto;html=1;exitX=0.5;exitY=1;exitDx=0;exitDy=0;entryX=0.5;entryY=0;entryDx=0;entryDy=0;fontFamily=Helvetica;fontSize=12;fontColor=default;labelBackgroundColor=#ffffff;resizable=0;" edge="1" parent="1" source="zcGV5km0rDXlHKQMvc85-11" target="zcGV5km0rDXlHKQMvc85-35">
          <mxGeometry relative="1" as="geometry" />
        </mxCell>
        <mxCell id="zcGV5km0rDXlHKQMvc85-44" style="edgeStyle=orthogonalEdgeStyle;rounded=0;orthogonalLoop=1;jettySize=auto;html=1;exitX=0.5;exitY=1;exitDx=0;exitDy=0;entryX=0.5;entryY=0;entryDx=0;entryDy=0;fontFamily=Helvetica;fontSize=12;fontColor=default;labelBackgroundColor=#ffffff;resizable=0;" edge="1" parent="1" source="zcGV5km0rDXlHKQMvc85-11" target="zcGV5km0rDXlHKQMvc85-37">
          <mxGeometry relative="1" as="geometry" />
        </mxCell>
        <mxCell id="zcGV5km0rDXlHKQMvc85-45" style="edgeStyle=orthogonalEdgeStyle;rounded=0;orthogonalLoop=1;jettySize=auto;html=1;exitX=0.5;exitY=1;exitDx=0;exitDy=0;entryX=0.6;entryY=0;entryDx=0;entryDy=0;fontFamily=Helvetica;fontSize=12;fontColor=default;labelBackgroundColor=#ffffff;resizable=0;" edge="1" parent="1" source="zcGV5km0rDXlHKQMvc85-11" target="zcGV5km0rDXlHKQMvc85-41">
          <mxGeometry relative="1" as="geometry" />
        </mxCell>
        <mxCell id="zcGV5km0rDXlHKQMvc85-46" style="edgeStyle=orthogonalEdgeStyle;rounded=0;orthogonalLoop=1;jettySize=auto;html=1;exitX=0.5;exitY=1;exitDx=0;exitDy=0;entryX=0.5;entryY=0;entryDx=0;entryDy=0;fontFamily=Helvetica;fontSize=12;fontColor=default;labelBackgroundColor=#ffffff;resizable=0;" edge="1" parent="1" source="zcGV5km0rDXlHKQMvc85-11" target="zcGV5km0rDXlHKQMvc85-42">
          <mxGeometry relative="1" as="geometry" />
        </mxCell>
        <mxCell id="zcGV5km0rDXlHKQMvc85-150" style="edgeStyle=orthogonalEdgeStyle;rounded=0;orthogonalLoop=1;jettySize=auto;html=1;exitX=0;exitY=0.5;exitDx=0;exitDy=0;entryX=1;entryY=0.5;entryDx=0;entryDy=0;fontFamily=Helvetica;fontSize=12;fontColor=default;labelBackgroundColor=#ffffff;resizable=0;" edge="1" parent="1" source="zcGV5km0rDXlHKQMvc85-11" target="zcGV5km0rDXlHKQMvc85-149">
          <mxGeometry relative="1" as="geometry" />
        </mxCell>
        <mxCell id="zcGV5km0rDXlHKQMvc85-178" style="edgeStyle=orthogonalEdgeStyle;rounded=0;orthogonalLoop=1;jettySize=auto;html=1;exitX=0.1;exitY=0;exitDx=0;exitDy=0;entryX=0.5;entryY=0;entryDx=0;entryDy=0;fontFamily=Helvetica;fontSize=12;fontColor=default;labelBackgroundColor=#ffffff;resizable=0;" edge="1" parent="1" source="zcGV5km0rDXlHKQMvc85-11" target="zcGV5km0rDXlHKQMvc85-177">
          <mxGeometry relative="1" as="geometry" />
        </mxCell>
        <mxCell id="zcGV5km0rDXlHKQMvc85-11" value="GPT" style="rounded=0;whiteSpace=wrap;html=1;snapToPoint=1;points=[[0.1,0],[0.2,0],[0.3,0],[0.4,0],[0.5,0],[0.6,0],[0.7,0],[0.8,0],[0.9,0],[0,0.1],[0,0.3],[0,0.5],[0,0.7],[0,0.9],[0.1,1],[0.2,1],[0.3,1],[0.4,1],[0.5,1],[0.6,1],[0.7,1],[0.8,1],[0.9,1],[1,0.1],[1,0.3],[1,0.5],[1,0.7],[1,0.9]];" vertex="1" parent="1">
          <mxGeometry x="8660" y="6960" width="130" height="40" as="geometry" />
        </mxCell>
        <mxCell id="zcGV5km0rDXlHKQMvc85-50" style="edgeStyle=orthogonalEdgeStyle;rounded=0;orthogonalLoop=1;jettySize=auto;html=1;exitX=0.5;exitY=1;exitDx=0;exitDy=0;entryX=0.5;entryY=0;entryDx=0;entryDy=0;fontFamily=Helvetica;fontSize=12;fontColor=default;labelBackgroundColor=#ffffff;resizable=0;" edge="1" parent="1" source="zcGV5km0rDXlHKQMvc85-12" target="zcGV5km0rDXlHKQMvc85-49">
          <mxGeometry relative="1" as="geometry" />
        </mxCell>
        <mxCell id="zcGV5km0rDXlHKQMvc85-56" style="edgeStyle=orthogonalEdgeStyle;rounded=0;orthogonalLoop=1;jettySize=auto;html=1;exitX=0.5;exitY=1;exitDx=0;exitDy=0;entryX=0.5;entryY=0;entryDx=0;entryDy=0;fontFamily=Helvetica;fontSize=12;fontColor=default;labelBackgroundColor=#ffffff;resizable=0;" edge="1" parent="1" source="zcGV5km0rDXlHKQMvc85-12" target="zcGV5km0rDXlHKQMvc85-51">
          <mxGeometry relative="1" as="geometry" />
        </mxCell>
        <mxCell id="zcGV5km0rDXlHKQMvc85-153" style="edgeStyle=orthogonalEdgeStyle;rounded=0;orthogonalLoop=1;jettySize=auto;html=1;exitX=0.2;exitY=1;exitDx=0;exitDy=0;entryX=0.5;entryY=0;entryDx=0;entryDy=0;fontFamily=Helvetica;fontSize=12;fontColor=default;labelBackgroundColor=#ffffff;resizable=0;" edge="1" parent="1" source="zcGV5km0rDXlHKQMvc85-12" target="zcGV5km0rDXlHKQMvc85-152">
          <mxGeometry relative="1" as="geometry" />
        </mxCell>
        <mxCell id="zcGV5km0rDXlHKQMvc85-182" style="edgeStyle=orthogonalEdgeStyle;rounded=0;orthogonalLoop=1;jettySize=auto;html=1;exitX=1;exitY=0.5;exitDx=0;exitDy=0;entryX=0.5;entryY=0;entryDx=0;entryDy=0;fontFamily=Helvetica;fontSize=12;fontColor=default;labelBackgroundColor=#ffffff;resizable=0;" edge="1" parent="1" source="zcGV5km0rDXlHKQMvc85-12" target="zcGV5km0rDXlHKQMvc85-180">
          <mxGeometry relative="1" as="geometry" />
        </mxCell>
        <mxCell id="zcGV5km0rDXlHKQMvc85-183" style="edgeStyle=orthogonalEdgeStyle;rounded=0;orthogonalLoop=1;jettySize=auto;html=1;exitX=0.9;exitY=1;exitDx=0;exitDy=0;entryX=1;entryY=0.5;entryDx=0;entryDy=0;fontFamily=Helvetica;fontSize=12;fontColor=default;labelBackgroundColor=#ffffff;resizable=0;" edge="1" parent="1" source="zcGV5km0rDXlHKQMvc85-12" target="zcGV5km0rDXlHKQMvc85-181">
          <mxGeometry relative="1" as="geometry">
            <Array as="points">
              <mxPoint x="8920" y="7000" />
              <mxPoint x="8920" y="7480" />
            </Array>
          </mxGeometry>
        </mxCell>
        <mxCell id="zcGV5km0rDXlHKQMvc85-12" value="Gemini" style="rounded=0;whiteSpace=wrap;html=1;snapToPoint=1;points=[[0.1,0],[0.2,0],[0.3,0],[0.4,0],[0.5,0],[0.6,0],[0.7,0],[0.8,0],[0.9,0],[0,0.1],[0,0.3],[0,0.5],[0,0.7],[0,0.9],[0.1,1],[0.2,1],[0.3,1],[0.4,1],[0.5,1],[0.6,1],[0.7,1],[0.8,1],[0.9,1],[1,0.1],[1,0.3],[1,0.5],[1,0.7],[1,0.9]];" vertex="1" parent="1">
          <mxGeometry x="8830" y="6960" width="130" height="40" as="geometry" />
        </mxCell>
        <mxCell id="zcGV5km0rDXlHKQMvc85-33" style="edgeStyle=orthogonalEdgeStyle;rounded=0;orthogonalLoop=1;jettySize=auto;html=1;exitX=1;exitY=0.5;exitDx=0;exitDy=0;entryX=0;entryY=0.5;entryDx=0;entryDy=0;fontFamily=Helvetica;fontSize=12;fontColor=default;labelBackgroundColor=#ffffff;resizable=0;" edge="1" parent="1" source="zcGV5km0rDXlHKQMvc85-15" target="zcGV5km0rDXlHKQMvc85-32">
          <mxGeometry relative="1" as="geometry" />
        </mxCell>
        <mxCell id="zcGV5km0rDXlHKQMvc85-76" style="edgeStyle=orthogonalEdgeStyle;rounded=0;orthogonalLoop=1;jettySize=auto;html=1;exitX=0.7;exitY=1;exitDx=0;exitDy=0;entryX=0.4;entryY=0;entryDx=0;entryDy=0;fontFamily=Helvetica;fontSize=12;fontColor=default;labelBackgroundColor=#ffffff;resizable=0;" edge="1" parent="1" source="zcGV5km0rDXlHKQMvc85-15" target="zcGV5km0rDXlHKQMvc85-75">
          <mxGeometry relative="1" as="geometry" />
        </mxCell>
        <mxCell id="zcGV5km0rDXlHKQMvc85-156" style="edgeStyle=orthogonalEdgeStyle;rounded=0;orthogonalLoop=1;jettySize=auto;html=1;exitX=0.1;exitY=1;exitDx=0;exitDy=0;entryX=1;entryY=0.5;entryDx=0;entryDy=0;fontFamily=Helvetica;fontSize=12;fontColor=default;labelBackgroundColor=#ffffff;resizable=0;" edge="1" parent="1" source="zcGV5km0rDXlHKQMvc85-15" target="zcGV5km0rDXlHKQMvc85-155">
          <mxGeometry relative="1" as="geometry" />
        </mxCell>
        <mxCell id="zcGV5km0rDXlHKQMvc85-188" style="edgeStyle=orthogonalEdgeStyle;rounded=0;orthogonalLoop=1;jettySize=auto;html=1;exitX=0.3;exitY=1;exitDx=0;exitDy=0;entryX=0;entryY=0.5;entryDx=0;entryDy=0;fontFamily=Helvetica;fontSize=12;fontColor=default;labelBackgroundColor=#ffffff;resizable=0;" edge="1" parent="1" source="zcGV5km0rDXlHKQMvc85-15" target="zcGV5km0rDXlHKQMvc85-187">
          <mxGeometry relative="1" as="geometry" />
        </mxCell>
        <mxCell id="zcGV5km0rDXlHKQMvc85-15" value="Alpaca" style="rounded=0;whiteSpace=wrap;html=1;snapToPoint=1;points=[[0.1,0],[0.2,0],[0.3,0],[0.4,0],[0.5,0],[0.6,0],[0.7,0],[0.8,0],[0.9,0],[0,0.1],[0,0.3],[0,0.5],[0,0.7],[0,0.9],[0.1,1],[0.2,1],[0.3,1],[0.4,1],[0.5,1],[0.6,1],[0.7,1],[0.8,1],[0.9,1],[1,0.1],[1,0.3],[1,0.5],[1,0.7],[1,0.9]];" vertex="1" parent="1">
          <mxGeometry x="9000" y="6960" width="130" height="40" as="geometry" />
        </mxCell>
        <mxCell id="zcGV5km0rDXlHKQMvc85-81" style="edgeStyle=orthogonalEdgeStyle;rounded=0;orthogonalLoop=1;jettySize=auto;html=1;exitX=0.5;exitY=1;exitDx=0;exitDy=0;entryX=0.5;entryY=0;entryDx=0;entryDy=0;fontFamily=Helvetica;fontSize=12;fontColor=default;labelBackgroundColor=#ffffff;resizable=0;" edge="1" parent="1" source="zcGV5km0rDXlHKQMvc85-17" target="zcGV5km0rDXlHKQMvc85-77">
          <mxGeometry relative="1" as="geometry" />
        </mxCell>
        <mxCell id="zcGV5km0rDXlHKQMvc85-82" style="edgeStyle=orthogonalEdgeStyle;rounded=0;orthogonalLoop=1;jettySize=auto;html=1;exitX=0.5;exitY=1;exitDx=0;exitDy=0;fontFamily=Helvetica;fontSize=12;fontColor=default;labelBackgroundColor=#ffffff;resizable=0;" edge="1" parent="1" source="zcGV5km0rDXlHKQMvc85-17" target="zcGV5km0rDXlHKQMvc85-80">
          <mxGeometry relative="1" as="geometry" />
        </mxCell>
        <mxCell id="zcGV5km0rDXlHKQMvc85-83" style="edgeStyle=orthogonalEdgeStyle;rounded=0;orthogonalLoop=1;jettySize=auto;html=1;exitX=0.5;exitY=1;exitDx=0;exitDy=0;fontFamily=Helvetica;fontSize=12;fontColor=default;labelBackgroundColor=#ffffff;resizable=0;" edge="1" parent="1" source="zcGV5km0rDXlHKQMvc85-17" target="zcGV5km0rDXlHKQMvc85-79">
          <mxGeometry relative="1" as="geometry" />
        </mxCell>
        <mxCell id="zcGV5km0rDXlHKQMvc85-161" style="edgeStyle=orthogonalEdgeStyle;rounded=0;orthogonalLoop=1;jettySize=auto;html=1;entryX=1;entryY=0.5;entryDx=0;entryDy=0;fontFamily=Helvetica;fontSize=12;fontColor=default;labelBackgroundColor=#ffffff;resizable=0;" edge="1" parent="1" source="zcGV5km0rDXlHKQMvc85-17" target="zcGV5km0rDXlHKQMvc85-158">
          <mxGeometry relative="1" as="geometry">
            <Array as="points">
              <mxPoint x="9660" y="6980" />
              <mxPoint x="9660" y="7410" />
            </Array>
          </mxGeometry>
        </mxCell>
        <mxCell id="zcGV5km0rDXlHKQMvc85-191" style="edgeStyle=orthogonalEdgeStyle;rounded=0;orthogonalLoop=1;jettySize=auto;html=1;exitX=0.3;exitY=1;exitDx=0;exitDy=0;entryX=1;entryY=0.5;entryDx=0;entryDy=0;fontFamily=Helvetica;fontSize=12;fontColor=default;labelBackgroundColor=#ffffff;resizable=0;" edge="1" parent="1" source="zcGV5km0rDXlHKQMvc85-17" target="zcGV5km0rDXlHKQMvc85-190">
          <mxGeometry relative="1" as="geometry" />
        </mxCell>
        <mxCell id="zcGV5km0rDXlHKQMvc85-17" value="LLAMA" style="rounded=0;whiteSpace=wrap;html=1;snapToPoint=1;points=[[0.1,0],[0.2,0],[0.3,0],[0.4,0],[0.5,0],[0.6,0],[0.7,0],[0.8,0],[0.9,0],[0,0.1],[0,0.3],[0,0.5],[0,0.7],[0,0.9],[0.1,1],[0.2,1],[0.3,1],[0.4,1],[0.5,1],[0.6,1],[0.7,1],[0.8,1],[0.9,1],[1,0.1],[1,0.3],[1,0.5],[1,0.7],[1,0.9]];" vertex="1" parent="1">
          <mxGeometry x="9300" y="6960" width="130" height="40" as="geometry" />
        </mxCell>
        <mxCell id="zcGV5km0rDXlHKQMvc85-34" style="edgeStyle=orthogonalEdgeStyle;rounded=0;orthogonalLoop=1;jettySize=auto;html=1;exitX=1;exitY=0.5;exitDx=0;exitDy=0;entryX=0;entryY=0.5;entryDx=0;entryDy=0;fontFamily=Helvetica;fontSize=12;fontColor=default;labelBackgroundColor=#ffffff;resizable=0;" edge="1" parent="1" source="zcGV5km0rDXlHKQMvc85-32" target="zcGV5km0rDXlHKQMvc85-17">
          <mxGeometry relative="1" as="geometry" />
        </mxCell>
        <mxCell id="zcGV5km0rDXlHKQMvc85-32" value="&lt;font color=&quot;#000000&quot;&gt;based_on&lt;/font&gt;" style="shape=rhombus;perimeter=rhombusPerimeter;whiteSpace=wrap;html=1;align=center;verticalAlign=middle;fontFamily=Helvetica;fontSize=12;fontColor=default;labelBackgroundColor=#ffffff;resizable=0;fillColor=none;gradientColor=none;" vertex="1" parent="1">
          <mxGeometry x="9150" y="6950" width="120" height="60" as="geometry" />
        </mxCell>
        <mxCell id="zcGV5km0rDXlHKQMvc85-35" value="GPT-1" style="rounded=0;whiteSpace=wrap;html=1;snapToPoint=1;points=[[0.1,0],[0.2,0],[0.3,0],[0.4,0],[0.5,0],[0.6,0],[0.7,0],[0.8,0],[0.9,0],[0,0.1],[0,0.3],[0,0.5],[0,0.7],[0,0.9],[0.1,1],[0.2,1],[0.3,1],[0.4,1],[0.5,1],[0.6,1],[0.7,1],[0.8,1],[0.9,1],[1,0.1],[1,0.3],[1,0.5],[1,0.7],[1,0.9]];" vertex="1" parent="1">
          <mxGeometry x="8410" y="7070" width="130" height="40" as="geometry" />
        </mxCell>
        <mxCell id="zcGV5km0rDXlHKQMvc85-67" style="edgeStyle=orthogonalEdgeStyle;rounded=0;orthogonalLoop=1;jettySize=auto;html=1;exitX=0;exitY=0.5;exitDx=0;exitDy=0;entryX=0.5;entryY=1;entryDx=0;entryDy=0;fontFamily=Helvetica;fontSize=12;fontColor=default;labelBackgroundColor=#ffffff;resizable=0;" edge="1" parent="1" source="zcGV5km0rDXlHKQMvc85-37" target="zcGV5km0rDXlHKQMvc85-59">
          <mxGeometry relative="1" as="geometry" />
        </mxCell>
        <mxCell id="zcGV5km0rDXlHKQMvc85-37" value="GPT-2" style="rounded=0;whiteSpace=wrap;html=1;snapToPoint=1;points=[[0.1,0],[0.2,0],[0.3,0],[0.4,0],[0.5,0],[0.6,0],[0.7,0],[0.8,0],[0.9,0],[0,0.1],[0,0.3],[0,0.5],[0,0.7],[0,0.9],[0.1,1],[0.2,1],[0.3,1],[0.4,1],[0.5,1],[0.6,1],[0.7,1],[0.8,1],[0.9,1],[1,0.1],[1,0.3],[1,0.5],[1,0.7],[1,0.9]];" vertex="1" parent="1">
          <mxGeometry x="8490" y="7120" width="130" height="40" as="geometry" />
        </mxCell>
        <mxCell id="zcGV5km0rDXlHKQMvc85-71" style="edgeStyle=orthogonalEdgeStyle;rounded=0;orthogonalLoop=1;jettySize=auto;html=1;entryX=1;entryY=0.5;entryDx=0;entryDy=0;fontFamily=Helvetica;fontSize=12;fontColor=default;labelBackgroundColor=#ffffff;resizable=0;" edge="1" parent="1" source="zcGV5km0rDXlHKQMvc85-41" target="zcGV5km0rDXlHKQMvc85-62">
          <mxGeometry relative="1" as="geometry" />
        </mxCell>
        <mxCell id="zcGV5km0rDXlHKQMvc85-41" value="GPT-3" style="rounded=0;whiteSpace=wrap;html=1;snapToPoint=1;points=[[0.1,0],[0.2,0],[0.3,0],[0.4,0],[0.5,0],[0.6,0],[0.7,0],[0.8,0],[0.9,0],[0,0.1],[0,0.3],[0,0.5],[0,0.7],[0,0.9],[0.1,1],[0.2,1],[0.3,1],[0.4,1],[0.5,1],[0.6,1],[0.7,1],[0.8,1],[0.9,1],[1,0.1],[1,0.3],[1,0.5],[1,0.7],[1,0.9]];" vertex="1" parent="1">
          <mxGeometry x="8580" y="7170" width="130" height="40" as="geometry" />
        </mxCell>
        <mxCell id="zcGV5km0rDXlHKQMvc85-73" style="edgeStyle=orthogonalEdgeStyle;rounded=0;orthogonalLoop=1;jettySize=auto;html=1;exitX=0;exitY=0.7;exitDx=0;exitDy=0;entryX=1;entryY=0.5;entryDx=0;entryDy=0;fontFamily=Helvetica;fontSize=12;fontColor=default;labelBackgroundColor=#ffffff;resizable=0;" edge="1" parent="1" source="zcGV5km0rDXlHKQMvc85-42" target="zcGV5km0rDXlHKQMvc85-72">
          <mxGeometry relative="1" as="geometry" />
        </mxCell>
        <mxCell id="zcGV5km0rDXlHKQMvc85-42" value="GPT-4" style="rounded=0;whiteSpace=wrap;html=1;snapToPoint=1;points=[[0.1,0],[0.2,0],[0.3,0],[0.4,0],[0.5,0],[0.6,0],[0.7,0],[0.8,0],[0.9,0],[0,0.1],[0,0.3],[0,0.5],[0,0.7],[0,0.9],[0.1,1],[0.2,1],[0.3,1],[0.4,1],[0.5,1],[0.6,1],[0.7,1],[0.8,1],[0.9,1],[1,0.1],[1,0.3],[1,0.5],[1,0.7],[1,0.9]];" vertex="1" parent="1">
          <mxGeometry x="8710" y="7220" width="130" height="40" as="geometry" />
        </mxCell>
        <mxCell id="zcGV5km0rDXlHKQMvc85-48" value="instance_of" style="text;strokeColor=none;fillColor=none;html=1;fontSize=12;fontStyle=0;verticalAlign=middle;align=center;fontFamily=Helvetica;fontColor=#000000;labelBackgroundColor=#ffffff;resizable=0;" vertex="1" parent="1">
          <mxGeometry x="8675" y="7010" width="100" height="40" as="geometry" />
        </mxCell>
        <mxCell id="zcGV5km0rDXlHKQMvc85-49" value="Gemini-Pro" style="rounded=0;whiteSpace=wrap;html=1;snapToPoint=1;points=[[0.1,0],[0.2,0],[0.3,0],[0.4,0],[0.5,0],[0.6,0],[0.7,0],[0.8,0],[0.9,0],[0,0.1],[0,0.3],[0,0.5],[0,0.7],[0,0.9],[0.1,1],[0.2,1],[0.3,1],[0.4,1],[0.5,1],[0.6,1],[0.7,1],[0.8,1],[0.9,1],[1,0.1],[1,0.3],[1,0.5],[1,0.7],[1,0.9]];" vertex="1" parent="1">
          <mxGeometry x="8770" y="7060" width="130" height="40" as="geometry" />
        </mxCell>
        <mxCell id="zcGV5km0rDXlHKQMvc85-51" value="Gemini-Ultra" style="rounded=0;whiteSpace=wrap;html=1;snapToPoint=1;points=[[0.1,0],[0.2,0],[0.3,0],[0.4,0],[0.5,0],[0.6,0],[0.7,0],[0.8,0],[0.9,0],[0,0.1],[0,0.3],[0,0.5],[0,0.7],[0,0.9],[0.1,1],[0.2,1],[0.3,1],[0.4,1],[0.5,1],[0.6,1],[0.7,1],[0.8,1],[0.9,1],[1,0.1],[1,0.3],[1,0.5],[1,0.7],[1,0.9]];" vertex="1" parent="1">
          <mxGeometry x="8850" y="7110" width="130" height="40" as="geometry" />
        </mxCell>
        <mxCell id="zcGV5km0rDXlHKQMvc85-57" value="instance_of" style="text;strokeColor=none;fillColor=none;html=1;fontSize=12;fontStyle=0;verticalAlign=middle;align=center;fontFamily=Helvetica;fontColor=#000000;labelBackgroundColor=#ffffff;resizable=0;" vertex="1" parent="1">
          <mxGeometry x="8850" y="6990" width="100" height="40" as="geometry" />
        </mxCell>
        <mxCell id="zcGV5km0rDXlHKQMvc85-68" style="edgeStyle=orthogonalEdgeStyle;rounded=0;orthogonalLoop=1;jettySize=auto;html=1;exitX=1;exitY=0.5;exitDx=0;exitDy=0;entryX=0;entryY=0.5;entryDx=0;entryDy=0;fontFamily=Helvetica;fontSize=12;fontColor=default;labelBackgroundColor=#ffffff;resizable=0;" edge="1" parent="1" source="zcGV5km0rDXlHKQMvc85-59" target="zcGV5km0rDXlHKQMvc85-35">
          <mxGeometry relative="1" as="geometry" />
        </mxCell>
        <mxCell id="zcGV5km0rDXlHKQMvc85-59" value="&lt;font color=&quot;#000000&quot;&gt;evolves&lt;/font&gt;" style="shape=rhombus;perimeter=rhombusPerimeter;whiteSpace=wrap;html=1;align=center;verticalAlign=middle;fontFamily=Helvetica;fontSize=12;fontColor=default;labelBackgroundColor=#ffffff;resizable=0;fillColor=none;gradientColor=none;" vertex="1" parent="1">
          <mxGeometry x="8220" y="7040" width="120" height="60" as="geometry" />
        </mxCell>
        <mxCell id="zcGV5km0rDXlHKQMvc85-70" style="edgeStyle=orthogonalEdgeStyle;rounded=0;orthogonalLoop=1;jettySize=auto;html=1;exitX=0.5;exitY=0;exitDx=0;exitDy=0;entryX=0;entryY=0.7;entryDx=0;entryDy=0;fontFamily=Helvetica;fontSize=12;fontColor=default;labelBackgroundColor=#ffffff;resizable=0;" edge="1" parent="1" source="zcGV5km0rDXlHKQMvc85-62" target="zcGV5km0rDXlHKQMvc85-37">
          <mxGeometry relative="1" as="geometry" />
        </mxCell>
        <mxCell id="zcGV5km0rDXlHKQMvc85-62" value="&lt;font color=&quot;#000000&quot;&gt;evolves&lt;/font&gt;" style="shape=rhombus;perimeter=rhombusPerimeter;whiteSpace=wrap;html=1;align=center;verticalAlign=middle;fontFamily=Helvetica;fontSize=12;fontColor=default;labelBackgroundColor=#ffffff;resizable=0;fillColor=none;gradientColor=none;" vertex="1" parent="1">
          <mxGeometry x="8250" y="7170" width="120" height="60" as="geometry" />
        </mxCell>
        <mxCell id="zcGV5km0rDXlHKQMvc85-74" style="edgeStyle=orthogonalEdgeStyle;rounded=0;orthogonalLoop=1;jettySize=auto;html=1;exitX=0.5;exitY=0;exitDx=0;exitDy=0;entryX=0;entryY=0.7;entryDx=0;entryDy=0;fontFamily=Helvetica;fontSize=12;fontColor=default;labelBackgroundColor=#ffffff;resizable=0;" edge="1" parent="1" source="zcGV5km0rDXlHKQMvc85-72" target="zcGV5km0rDXlHKQMvc85-41">
          <mxGeometry relative="1" as="geometry" />
        </mxCell>
        <mxCell id="zcGV5km0rDXlHKQMvc85-72" value="&lt;font color=&quot;#000000&quot;&gt;evolves&lt;/font&gt;" style="shape=rhombus;perimeter=rhombusPerimeter;whiteSpace=wrap;html=1;align=center;verticalAlign=middle;fontFamily=Helvetica;fontSize=12;fontColor=default;labelBackgroundColor=#ffffff;resizable=0;fillColor=none;gradientColor=none;" vertex="1" parent="1">
          <mxGeometry x="8480" y="7240" width="120" height="60" as="geometry" />
        </mxCell>
        <mxCell id="zcGV5km0rDXlHKQMvc85-75" value="Alpaca-7B" style="rounded=0;whiteSpace=wrap;html=1;snapToPoint=1;points=[[0.1,0],[0.2,0],[0.3,0],[0.4,0],[0.5,0],[0.6,0],[0.7,0],[0.8,0],[0.9,0],[0,0.1],[0,0.3],[0,0.5],[0,0.7],[0,0.9],[0.1,1],[0.2,1],[0.3,1],[0.4,1],[0.5,1],[0.6,1],[0.7,1],[0.8,1],[0.9,1],[1,0.1],[1,0.3],[1,0.5],[1,0.7],[1,0.9]];" vertex="1" parent="1">
          <mxGeometry x="9110" y="7190" width="130" height="40" as="geometry" />
        </mxCell>
        <mxCell id="zcGV5km0rDXlHKQMvc85-77" value="LLAMA-1" style="rounded=0;whiteSpace=wrap;html=1;snapToPoint=1;points=[[0.1,0],[0.2,0],[0.3,0],[0.4,0],[0.5,0],[0.6,0],[0.7,0],[0.8,0],[0.9,0],[0,0.1],[0,0.3],[0,0.5],[0,0.7],[0,0.9],[0.1,1],[0.2,1],[0.3,1],[0.4,1],[0.5,1],[0.6,1],[0.7,1],[0.8,1],[0.9,1],[1,0.1],[1,0.3],[1,0.5],[1,0.7],[1,0.9]];" vertex="1" parent="1">
          <mxGeometry x="9180" y="7110" width="130" height="40" as="geometry" />
        </mxCell>
        <mxCell id="zcGV5km0rDXlHKQMvc85-78" value="instance_of" style="text;strokeColor=none;fillColor=none;html=1;fontSize=12;fontStyle=0;verticalAlign=middle;align=center;fontFamily=Helvetica;fontColor=#000000;labelBackgroundColor=#ffffff;resizable=0;" vertex="1" parent="1">
          <mxGeometry x="9030" y="7010" width="100" height="40" as="geometry" />
        </mxCell>
        <mxCell id="zcGV5km0rDXlHKQMvc85-79" value="LLAMA-3" style="rounded=0;whiteSpace=wrap;html=1;snapToPoint=1;points=[[0.1,0],[0.2,0],[0.3,0],[0.4,0],[0.5,0],[0.6,0],[0.7,0],[0.8,0],[0.9,0],[0,0.1],[0,0.3],[0,0.5],[0,0.7],[0,0.9],[0.1,1],[0.2,1],[0.3,1],[0.4,1],[0.5,1],[0.6,1],[0.7,1],[0.8,1],[0.9,1],[1,0.1],[1,0.3],[1,0.5],[1,0.7],[1,0.9]];" vertex="1" parent="1">
          <mxGeometry x="9510" y="7110" width="130" height="40" as="geometry" />
        </mxCell>
        <mxCell id="zcGV5km0rDXlHKQMvc85-80" value="LLAMA-2" style="rounded=0;whiteSpace=wrap;html=1;snapToPoint=1;points=[[0.1,0],[0.2,0],[0.3,0],[0.4,0],[0.5,0],[0.6,0],[0.7,0],[0.8,0],[0.9,0],[0,0.1],[0,0.3],[0,0.5],[0,0.7],[0,0.9],[0.1,1],[0.2,1],[0.3,1],[0.4,1],[0.5,1],[0.6,1],[0.7,1],[0.8,1],[0.9,1],[1,0.1],[1,0.3],[1,0.5],[1,0.7],[1,0.9]];" vertex="1" parent="1">
          <mxGeometry x="9360" y="7110" width="130" height="40" as="geometry" />
        </mxCell>
        <mxCell id="zcGV5km0rDXlHKQMvc85-84" value="instance_of" style="text;strokeColor=none;fillColor=none;html=1;fontSize=12;fontStyle=0;verticalAlign=middle;align=center;fontFamily=Helvetica;fontColor=#000000;labelBackgroundColor=#ffffff;resizable=0;" vertex="1" parent="1">
          <mxGeometry x="9295" y="7010" width="100" height="40" as="geometry" />
        </mxCell>
        <mxCell id="zcGV5km0rDXlHKQMvc85-88" style="edgeStyle=orthogonalEdgeStyle;rounded=0;orthogonalLoop=1;jettySize=auto;html=1;exitX=0.5;exitY=1;exitDx=0;exitDy=0;entryX=0.5;entryY=0;entryDx=0;entryDy=0;fontFamily=Helvetica;fontSize=12;fontColor=default;labelBackgroundColor=#ffffff;resizable=0;" edge="1" parent="1" source="zcGV5km0rDXlHKQMvc85-86" target="zcGV5km0rDXlHKQMvc85-87">
          <mxGeometry relative="1" as="geometry" />
        </mxCell>
        <mxCell id="zcGV5km0rDXlHKQMvc85-90" style="edgeStyle=orthogonalEdgeStyle;rounded=0;orthogonalLoop=1;jettySize=auto;html=1;exitX=0.5;exitY=1;exitDx=0;exitDy=0;entryX=0.5;entryY=0;entryDx=0;entryDy=0;fontFamily=Helvetica;fontSize=12;fontColor=default;labelBackgroundColor=#ffffff;resizable=0;" edge="1" parent="1" source="zcGV5km0rDXlHKQMvc85-86" target="zcGV5km0rDXlHKQMvc85-89">
          <mxGeometry relative="1" as="geometry" />
        </mxCell>
        <mxCell id="zcGV5km0rDXlHKQMvc85-92" style="edgeStyle=orthogonalEdgeStyle;rounded=0;orthogonalLoop=1;jettySize=auto;html=1;exitX=0.5;exitY=1;exitDx=0;exitDy=0;fontFamily=Helvetica;fontSize=12;fontColor=default;labelBackgroundColor=#ffffff;resizable=0;" edge="1" parent="1" source="zcGV5km0rDXlHKQMvc85-86" target="zcGV5km0rDXlHKQMvc85-91">
          <mxGeometry relative="1" as="geometry" />
        </mxCell>
        <mxCell id="zcGV5km0rDXlHKQMvc85-86" value="Organization" style="rounded=0;whiteSpace=wrap;html=1;snapToPoint=1;points=[[0.1,0],[0.2,0],[0.3,0],[0.4,0],[0.5,0],[0.6,0],[0.7,0],[0.8,0],[0.9,0],[0,0.1],[0,0.3],[0,0.5],[0,0.7],[0,0.9],[0.1,1],[0.2,1],[0.3,1],[0.4,1],[0.5,1],[0.6,1],[0.7,1],[0.8,1],[0.9,1],[1,0.1],[1,0.3],[1,0.5],[1,0.7],[1,0.9]];" vertex="1" parent="1">
          <mxGeometry x="10000" y="6540" width="120" height="30" as="geometry" />
        </mxCell>
        <mxCell id="zcGV5km0rDXlHKQMvc85-94" style="edgeStyle=orthogonalEdgeStyle;rounded=0;orthogonalLoop=1;jettySize=auto;html=1;exitX=0.5;exitY=1;exitDx=0;exitDy=0;fontFamily=Helvetica;fontSize=12;fontColor=default;labelBackgroundColor=#ffffff;resizable=0;" edge="1" parent="1" source="zcGV5km0rDXlHKQMvc85-87" target="zcGV5km0rDXlHKQMvc85-93">
          <mxGeometry relative="1" as="geometry" />
        </mxCell>
        <mxCell id="zcGV5km0rDXlHKQMvc85-96" style="edgeStyle=orthogonalEdgeStyle;rounded=0;orthogonalLoop=1;jettySize=auto;html=1;exitX=0.5;exitY=1;exitDx=0;exitDy=0;fontFamily=Helvetica;fontSize=12;fontColor=default;labelBackgroundColor=#ffffff;resizable=0;" edge="1" parent="1" source="zcGV5km0rDXlHKQMvc85-87" target="zcGV5km0rDXlHKQMvc85-95">
          <mxGeometry relative="1" as="geometry" />
        </mxCell>
        <mxCell id="zcGV5km0rDXlHKQMvc85-98" style="edgeStyle=orthogonalEdgeStyle;rounded=0;orthogonalLoop=1;jettySize=auto;html=1;exitX=0.5;exitY=1;exitDx=0;exitDy=0;entryX=0.5;entryY=0;entryDx=0;entryDy=0;fontFamily=Helvetica;fontSize=12;fontColor=default;labelBackgroundColor=#ffffff;resizable=0;" edge="1" parent="1" source="zcGV5km0rDXlHKQMvc85-87" target="zcGV5km0rDXlHKQMvc85-97">
          <mxGeometry relative="1" as="geometry" />
        </mxCell>
        <mxCell id="zcGV5km0rDXlHKQMvc85-102" style="edgeStyle=orthogonalEdgeStyle;rounded=0;orthogonalLoop=1;jettySize=auto;html=1;exitX=0.5;exitY=1;exitDx=0;exitDy=0;entryX=0.5;entryY=0;entryDx=0;entryDy=0;fontFamily=Helvetica;fontSize=12;fontColor=default;labelBackgroundColor=#ffffff;resizable=0;" edge="1" parent="1" source="zcGV5km0rDXlHKQMvc85-87" target="zcGV5km0rDXlHKQMvc85-101">
          <mxGeometry relative="1" as="geometry" />
        </mxCell>
        <mxCell id="zcGV5km0rDXlHKQMvc85-87" value="Company" style="rounded=0;whiteSpace=wrap;html=1;snapToPoint=1;points=[[0.1,0],[0.2,0],[0.3,0],[0.4,0],[0.5,0],[0.6,0],[0.7,0],[0.8,0],[0.9,0],[0,0.1],[0,0.3],[0,0.5],[0,0.7],[0,0.9],[0.1,1],[0.2,1],[0.3,1],[0.4,1],[0.5,1],[0.6,1],[0.7,1],[0.8,1],[0.9,1],[1,0.1],[1,0.3],[1,0.5],[1,0.7],[1,0.9]];" vertex="1" parent="1">
          <mxGeometry x="9850" y="6640" width="120" height="30" as="geometry" />
        </mxCell>
        <mxCell id="zcGV5km0rDXlHKQMvc85-100" style="edgeStyle=orthogonalEdgeStyle;rounded=0;orthogonalLoop=1;jettySize=auto;html=1;exitX=0.5;exitY=1;exitDx=0;exitDy=0;entryX=0.5;entryY=0;entryDx=0;entryDy=0;fontFamily=Helvetica;fontSize=12;fontColor=default;labelBackgroundColor=#ffffff;resizable=0;" edge="1" parent="1" source="zcGV5km0rDXlHKQMvc85-89" target="zcGV5km0rDXlHKQMvc85-99">
          <mxGeometry relative="1" as="geometry" />
        </mxCell>
        <mxCell id="zcGV5km0rDXlHKQMvc85-89" value="University" style="rounded=0;whiteSpace=wrap;html=1;snapToPoint=1;points=[[0.1,0],[0.2,0],[0.3,0],[0.4,0],[0.5,0],[0.6,0],[0.7,0],[0.8,0],[0.9,0],[0,0.1],[0,0.3],[0,0.5],[0,0.7],[0,0.9],[0.1,1],[0.2,1],[0.3,1],[0.4,1],[0.5,1],[0.6,1],[0.7,1],[0.8,1],[0.9,1],[1,0.1],[1,0.3],[1,0.5],[1,0.7],[1,0.9]];" vertex="1" parent="1">
          <mxGeometry x="10010" y="6640" width="120" height="30" as="geometry" />
        </mxCell>
        <mxCell id="zcGV5km0rDXlHKQMvc85-104" style="edgeStyle=orthogonalEdgeStyle;rounded=0;orthogonalLoop=1;jettySize=auto;html=1;exitX=0.5;exitY=1;exitDx=0;exitDy=0;entryX=0.5;entryY=0;entryDx=0;entryDy=0;fontFamily=Helvetica;fontSize=12;fontColor=default;labelBackgroundColor=#ffffff;resizable=0;" edge="1" parent="1" source="zcGV5km0rDXlHKQMvc85-91" target="zcGV5km0rDXlHKQMvc85-103">
          <mxGeometry relative="1" as="geometry" />
        </mxCell>
        <mxCell id="zcGV5km0rDXlHKQMvc85-91" value="Research institution" style="rounded=0;whiteSpace=wrap;html=1;snapToPoint=1;points=[[0.1,0],[0.2,0],[0.3,0],[0.4,0],[0.5,0],[0.6,0],[0.7,0],[0.8,0],[0.9,0],[0,0.1],[0,0.3],[0,0.5],[0,0.7],[0,0.9],[0.1,1],[0.2,1],[0.3,1],[0.4,1],[0.5,1],[0.6,1],[0.7,1],[0.8,1],[0.9,1],[1,0.1],[1,0.3],[1,0.5],[1,0.7],[1,0.9]];" vertex="1" parent="1">
          <mxGeometry x="10190" y="6640" width="120" height="30" as="geometry" />
        </mxCell>
        <mxCell id="zcGV5km0rDXlHKQMvc85-118" style="edgeStyle=orthogonalEdgeStyle;rounded=0;orthogonalLoop=1;jettySize=auto;html=1;exitX=0.5;exitY=1;exitDx=0;exitDy=0;entryX=0.5;entryY=0;entryDx=0;entryDy=0;fontFamily=Helvetica;fontSize=12;fontColor=default;labelBackgroundColor=#ffffff;resizable=0;" edge="1" parent="1" source="zcGV5km0rDXlHKQMvc85-93" target="zcGV5km0rDXlHKQMvc85-115">
          <mxGeometry relative="1" as="geometry" />
        </mxCell>
        <mxCell id="zcGV5km0rDXlHKQMvc85-93" value="Google" style="rounded=0;whiteSpace=wrap;html=1;snapToPoint=1;points=[[0.1,0],[0.2,0],[0.3,0],[0.4,0],[0.5,0],[0.6,0],[0.7,0],[0.8,0],[0.9,0],[0,0.1],[0,0.3],[0,0.5],[0,0.7],[0,0.9],[0.1,1],[0.2,1],[0.3,1],[0.4,1],[0.5,1],[0.6,1],[0.7,1],[0.8,1],[0.9,1],[1,0.1],[1,0.3],[1,0.5],[1,0.7],[1,0.9]];" vertex="1" parent="1">
          <mxGeometry x="9642" y="6710" width="120" height="30" as="geometry" />
        </mxCell>
        <mxCell id="zcGV5km0rDXlHKQMvc85-134" style="edgeStyle=orthogonalEdgeStyle;rounded=0;orthogonalLoop=1;jettySize=auto;html=1;exitX=0.5;exitY=0;exitDx=0;exitDy=0;entryX=0.5;entryY=0;entryDx=0;entryDy=0;fontFamily=Helvetica;fontSize=12;fontColor=default;labelBackgroundColor=#ffffff;resizable=0;" edge="1" parent="1" source="zcGV5km0rDXlHKQMvc85-95" target="zcGV5km0rDXlHKQMvc85-128">
          <mxGeometry relative="1" as="geometry" />
        </mxCell>
        <mxCell id="zcGV5km0rDXlHKQMvc85-95" value="Open-AI" style="rounded=0;whiteSpace=wrap;html=1;snapToPoint=1;points=[[0.1,0],[0.2,0],[0.3,0],[0.4,0],[0.5,0],[0.6,0],[0.7,0],[0.8,0],[0.9,0],[0,0.1],[0,0.3],[0,0.5],[0,0.7],[0,0.9],[0.1,1],[0.2,1],[0.3,1],[0.4,1],[0.5,1],[0.6,1],[0.7,1],[0.8,1],[0.9,1],[1,0.1],[1,0.3],[1,0.5],[1,0.7],[1,0.9]];" vertex="1" parent="1">
          <mxGeometry x="9780" y="6710" width="120" height="30" as="geometry" />
        </mxCell>
        <mxCell id="zcGV5km0rDXlHKQMvc85-97" value="HuggingFace" style="rounded=0;whiteSpace=wrap;html=1;snapToPoint=1;points=[[0.1,0],[0.2,0],[0.3,0],[0.4,0],[0.5,0],[0.6,0],[0.7,0],[0.8,0],[0.9,0],[0,0.1],[0,0.3],[0,0.5],[0,0.7],[0,0.9],[0.1,1],[0.2,1],[0.3,1],[0.4,1],[0.5,1],[0.6,1],[0.7,1],[0.8,1],[0.9,1],[1,0.1],[1,0.3],[1,0.5],[1,0.7],[1,0.9]];" vertex="1" parent="1">
          <mxGeometry x="9930" y="6710" width="120" height="30" as="geometry" />
        </mxCell>
        <mxCell id="zcGV5km0rDXlHKQMvc85-114" style="edgeStyle=orthogonalEdgeStyle;rounded=0;orthogonalLoop=1;jettySize=auto;html=1;exitX=0.5;exitY=1;exitDx=0;exitDy=0;entryX=1;entryY=0.5;entryDx=0;entryDy=0;fontFamily=Helvetica;fontSize=12;fontColor=default;labelBackgroundColor=#ffffff;resizable=0;" edge="1" parent="1" source="zcGV5km0rDXlHKQMvc85-99" target="zcGV5km0rDXlHKQMvc85-112">
          <mxGeometry relative="1" as="geometry" />
        </mxCell>
        <mxCell id="zcGV5km0rDXlHKQMvc85-99" value="Stanford" style="rounded=0;whiteSpace=wrap;html=1;snapToPoint=1;points=[[0.1,0],[0.2,0],[0.3,0],[0.4,0],[0.5,0],[0.6,0],[0.7,0],[0.8,0],[0.9,0],[0,0.1],[0,0.3],[0,0.5],[0,0.7],[0,0.9],[0.1,1],[0.2,1],[0.3,1],[0.4,1],[0.5,1],[0.6,1],[0.7,1],[0.8,1],[0.9,1],[1,0.1],[1,0.3],[1,0.5],[1,0.7],[1,0.9]];" vertex="1" parent="1">
          <mxGeometry x="10070" y="6730" width="120" height="30" as="geometry" />
        </mxCell>
        <mxCell id="zcGV5km0rDXlHKQMvc85-111" style="edgeStyle=orthogonalEdgeStyle;rounded=0;orthogonalLoop=1;jettySize=auto;html=1;exitX=0;exitY=0.5;exitDx=0;exitDy=0;entryX=0.5;entryY=0;entryDx=0;entryDy=0;fontFamily=Helvetica;fontSize=12;fontColor=default;labelBackgroundColor=#ffffff;resizable=0;" edge="1" parent="1" source="zcGV5km0rDXlHKQMvc85-101" target="zcGV5km0rDXlHKQMvc85-108">
          <mxGeometry relative="1" as="geometry" />
        </mxCell>
        <mxCell id="zcGV5km0rDXlHKQMvc85-101" value="META" style="rounded=0;whiteSpace=wrap;html=1;snapToPoint=1;points=[[0.1,0],[0.2,0],[0.3,0],[0.4,0],[0.5,0],[0.6,0],[0.7,0],[0.8,0],[0.9,0],[0,0.1],[0,0.3],[0,0.5],[0,0.7],[0,0.9],[0.1,1],[0.2,1],[0.3,1],[0.4,1],[0.5,1],[0.6,1],[0.7,1],[0.8,1],[0.9,1],[1,0.1],[1,0.3],[1,0.5],[1,0.7],[1,0.9]];" vertex="1" parent="1">
          <mxGeometry x="9480" y="6710" width="120" height="30" as="geometry" />
        </mxCell>
        <mxCell id="zcGV5km0rDXlHKQMvc85-106" style="edgeStyle=orthogonalEdgeStyle;rounded=0;orthogonalLoop=1;jettySize=auto;html=1;exitX=0.5;exitY=1;exitDx=0;exitDy=0;entryX=0.5;entryY=0;entryDx=0;entryDy=0;fontFamily=Helvetica;fontSize=12;fontColor=default;labelBackgroundColor=#ffffff;resizable=0;" edge="1" parent="1" source="zcGV5km0rDXlHKQMvc85-103" target="zcGV5km0rDXlHKQMvc85-105">
          <mxGeometry relative="1" as="geometry" />
        </mxCell>
        <mxCell id="zcGV5km0rDXlHKQMvc85-103" value="BigCode" style="rounded=0;whiteSpace=wrap;html=1;snapToPoint=1;points=[[0.1,0],[0.2,0],[0.3,0],[0.4,0],[0.5,0],[0.6,0],[0.7,0],[0.8,0],[0.9,0],[0,0.1],[0,0.3],[0,0.5],[0,0.7],[0,0.9],[0.1,1],[0.2,1],[0.3,1],[0.4,1],[0.5,1],[0.6,1],[0.7,1],[0.8,1],[0.9,1],[1,0.1],[1,0.3],[1,0.5],[1,0.7],[1,0.9]];" vertex="1" parent="1">
          <mxGeometry x="10250" y="6710" width="120" height="30" as="geometry" />
        </mxCell>
        <mxCell id="zcGV5km0rDXlHKQMvc85-107" style="edgeStyle=orthogonalEdgeStyle;rounded=0;orthogonalLoop=1;jettySize=auto;html=1;exitX=0;exitY=0.5;exitDx=0;exitDy=0;entryX=0.5;entryY=1;entryDx=0;entryDy=0;fontFamily=Helvetica;fontSize=12;fontColor=default;labelBackgroundColor=#ffffff;resizable=0;" edge="1" parent="1" source="zcGV5km0rDXlHKQMvc85-105" target="zcGV5km0rDXlHKQMvc85-97">
          <mxGeometry relative="1" as="geometry" />
        </mxCell>
        <mxCell id="zcGV5km0rDXlHKQMvc85-105" value="&lt;font color=&quot;#000000&quot;&gt;belongs_to&lt;/font&gt;" style="shape=rhombus;perimeter=rhombusPerimeter;whiteSpace=wrap;html=1;align=center;verticalAlign=middle;fontFamily=Helvetica;fontSize=12;fontColor=default;labelBackgroundColor=#ffffff;resizable=0;fillColor=none;gradientColor=none;" vertex="1" parent="1">
          <mxGeometry x="10250" y="6770" width="120" height="60" as="geometry" />
        </mxCell>
        <mxCell id="zcGV5km0rDXlHKQMvc85-109" style="edgeStyle=orthogonalEdgeStyle;rounded=0;orthogonalLoop=1;jettySize=auto;html=1;exitX=0.5;exitY=1;exitDx=0;exitDy=0;entryX=0.9;entryY=0;entryDx=0;entryDy=0;fontFamily=Helvetica;fontSize=12;fontColor=default;labelBackgroundColor=#ffffff;resizable=0;" edge="1" parent="1" source="zcGV5km0rDXlHKQMvc85-108" target="zcGV5km0rDXlHKQMvc85-17">
          <mxGeometry relative="1" as="geometry" />
        </mxCell>
        <mxCell id="zcGV5km0rDXlHKQMvc85-108" value="develops" style="shape=rhombus;perimeter=rhombusPerimeter;whiteSpace=wrap;html=1;align=center;verticalAlign=middle;fontFamily=Helvetica;fontSize=12;fontColor=#000000;labelBackgroundColor=#ffffff;resizable=0;fillColor=none;gradientColor=none;" vertex="1" parent="1">
          <mxGeometry x="9300" y="6810" width="120" height="60" as="geometry" />
        </mxCell>
        <mxCell id="zcGV5km0rDXlHKQMvc85-113" style="edgeStyle=orthogonalEdgeStyle;rounded=0;orthogonalLoop=1;jettySize=auto;html=1;exitX=0.5;exitY=1;exitDx=0;exitDy=0;entryX=0.9;entryY=0;entryDx=0;entryDy=0;fontFamily=Helvetica;fontSize=12;fontColor=default;labelBackgroundColor=#ffffff;resizable=0;" edge="1" parent="1" source="zcGV5km0rDXlHKQMvc85-112" target="zcGV5km0rDXlHKQMvc85-15">
          <mxGeometry relative="1" as="geometry" />
        </mxCell>
        <mxCell id="zcGV5km0rDXlHKQMvc85-112" value="&lt;font color=&quot;#000000&quot;&gt;develops&lt;/font&gt;" style="shape=rhombus;perimeter=rhombusPerimeter;whiteSpace=wrap;html=1;align=center;verticalAlign=middle;fontFamily=Helvetica;fontSize=12;fontColor=default;labelBackgroundColor=#ffffff;resizable=0;fillColor=none;gradientColor=none;" vertex="1" parent="1">
          <mxGeometry x="9000" y="6850" width="120" height="60" as="geometry" />
        </mxCell>
        <mxCell id="zcGV5km0rDXlHKQMvc85-119" style="edgeStyle=orthogonalEdgeStyle;rounded=0;orthogonalLoop=1;jettySize=auto;html=1;exitX=0.5;exitY=1;exitDx=0;exitDy=0;entryX=0.9;entryY=0;entryDx=0;entryDy=0;fontFamily=Helvetica;fontSize=12;fontColor=default;labelBackgroundColor=#ffffff;resizable=0;" edge="1" parent="1" source="zcGV5km0rDXlHKQMvc85-115" target="zcGV5km0rDXlHKQMvc85-12">
          <mxGeometry relative="1" as="geometry" />
        </mxCell>
        <mxCell id="zcGV5km0rDXlHKQMvc85-115" value="develops" style="shape=rhombus;perimeter=rhombusPerimeter;whiteSpace=wrap;html=1;align=center;verticalAlign=middle;fontFamily=Helvetica;fontSize=12;fontColor=#000000;labelBackgroundColor=#ffffff;resizable=0;fillColor=none;gradientColor=none;" vertex="1" parent="1">
          <mxGeometry x="8860" y="6750" width="120" height="60" as="geometry" />
        </mxCell>
        <mxCell id="zcGV5km0rDXlHKQMvc85-122" value="subclass" style="text;strokeColor=none;fillColor=none;html=1;fontSize=12;fontStyle=0;verticalAlign=middle;align=center;fontFamily=Helvetica;fontColor=#000000;labelBackgroundColor=#ffffff;resizable=0;" vertex="1" parent="1">
          <mxGeometry x="8760" y="6880" width="100" height="40" as="geometry" />
        </mxCell>
        <mxCell id="zcGV5km0rDXlHKQMvc85-123" value="subclass" style="text;strokeColor=none;fillColor=none;html=1;fontSize=12;fontStyle=0;verticalAlign=middle;align=center;fontFamily=Helvetica;fontColor=#000000;labelBackgroundColor=#ffffff;resizable=0;" vertex="1" parent="1">
          <mxGeometry x="10020" y="6670" width="100" height="40" as="geometry" />
        </mxCell>
        <mxCell id="zcGV5km0rDXlHKQMvc85-124" value="subclass" style="text;strokeColor=none;fillColor=none;html=1;fontSize=12;fontStyle=0;verticalAlign=middle;align=center;fontFamily=Helvetica;fontColor=#000000;labelBackgroundColor=#ffffff;resizable=0;" vertex="1" parent="1">
          <mxGeometry x="10010" y="6570" width="100" height="40" as="geometry" />
        </mxCell>
        <mxCell id="zcGV5km0rDXlHKQMvc85-126" value="subclass" style="text;strokeColor=none;fillColor=none;html=1;fontSize=12;fontStyle=0;verticalAlign=middle;align=center;fontFamily=Helvetica;fontColor=#000000;labelBackgroundColor=#ffffff;resizable=0;" vertex="1" parent="1">
          <mxGeometry x="10200" y="6660" width="100" height="40" as="geometry" />
        </mxCell>
        <mxCell id="zcGV5km0rDXlHKQMvc85-127" value="subclass" style="text;strokeColor=none;fillColor=none;html=1;fontSize=12;fontStyle=0;verticalAlign=middle;align=center;fontFamily=Helvetica;fontColor=#000000;labelBackgroundColor=#ffffff;resizable=0;" vertex="1" parent="1">
          <mxGeometry x="9858" y="6660" width="100" height="40" as="geometry" />
        </mxCell>
        <mxCell id="zcGV5km0rDXlHKQMvc85-129" style="edgeStyle=orthogonalEdgeStyle;rounded=0;orthogonalLoop=1;jettySize=auto;html=1;exitX=0;exitY=0.5;exitDx=0;exitDy=0;entryX=0.3;entryY=0;entryDx=0;entryDy=0;fontFamily=Helvetica;fontSize=12;fontColor=default;labelBackgroundColor=#ffffff;resizable=0;" edge="1" parent="1" source="zcGV5km0rDXlHKQMvc85-128" target="zcGV5km0rDXlHKQMvc85-11">
          <mxGeometry relative="1" as="geometry" />
        </mxCell>
        <mxCell id="zcGV5km0rDXlHKQMvc85-128" value="&lt;font color=&quot;#000000&quot;&gt;develops&lt;/font&gt;" style="shape=rhombus;perimeter=rhombusPerimeter;whiteSpace=wrap;html=1;align=center;verticalAlign=middle;fontFamily=Helvetica;fontSize=12;fontColor=default;labelBackgroundColor=#ffffff;resizable=0;fillColor=none;gradientColor=none;" vertex="1" parent="1">
          <mxGeometry x="8735" y="6640" width="120" height="60" as="geometry" />
        </mxCell>
        <mxCell id="zcGV5km0rDXlHKQMvc85-137" value="subclass" style="text;strokeColor=none;fillColor=none;html=1;fontSize=12;fontStyle=0;verticalAlign=middle;align=center;fontFamily=Helvetica;fontColor=#000000;labelBackgroundColor=#ffffff;resizable=0;" vertex="1" parent="1">
          <mxGeometry x="8575" y="6810" width="100" height="40" as="geometry" />
        </mxCell>
        <mxCell id="zcGV5km0rDXlHKQMvc85-148" style="edgeStyle=orthogonalEdgeStyle;rounded=0;orthogonalLoop=1;jettySize=auto;html=1;exitX=0.5;exitY=1;exitDx=0;exitDy=0;entryX=0.5;entryY=0;entryDx=0;entryDy=0;fontFamily=Helvetica;fontSize=12;fontColor=default;labelBackgroundColor=#ffffff;resizable=0;" edge="1" parent="1" source="zcGV5km0rDXlHKQMvc85-139" target="zcGV5km0rDXlHKQMvc85-142">
          <mxGeometry relative="1" as="geometry" />
        </mxCell>
        <mxCell id="zcGV5km0rDXlHKQMvc85-164" style="edgeStyle=orthogonalEdgeStyle;rounded=0;orthogonalLoop=1;jettySize=auto;html=1;exitX=0.5;exitY=1;exitDx=0;exitDy=0;entryX=1;entryY=0.5;entryDx=0;entryDy=0;fontFamily=Helvetica;fontSize=12;fontColor=default;labelBackgroundColor=#ffffff;resizable=0;" edge="1" parent="1" source="zcGV5km0rDXlHKQMvc85-139" target="zcGV5km0rDXlHKQMvc85-163">
          <mxGeometry relative="1" as="geometry">
            <Array as="points">
              <mxPoint x="8310" y="6820" />
              <mxPoint x="8055" y="6820" />
              <mxPoint x="8055" y="6770" />
            </Array>
          </mxGeometry>
        </mxCell>
        <mxCell id="zcGV5km0rDXlHKQMvc85-139" value="Language Model Feature" style="rounded=0;whiteSpace=wrap;html=1;snapToPoint=1;points=[[0.1,0],[0.2,0],[0.3,0],[0.4,0],[0.5,0],[0.6,0],[0.7,0],[0.8,0],[0.9,0],[0,0.1],[0,0.3],[0,0.5],[0,0.7],[0,0.9],[0.1,1],[0.2,1],[0.3,1],[0.4,1],[0.5,1],[0.6,1],[0.7,1],[0.8,1],[0.9,1],[1,0.1],[1,0.3],[1,0.5],[1,0.7],[1,0.9]];" vertex="1" parent="1">
          <mxGeometry x="8250" y="6730" width="120" height="40" as="geometry" />
        </mxCell>
        <mxCell id="zcGV5km0rDXlHKQMvc85-144" style="edgeStyle=orthogonalEdgeStyle;rounded=0;orthogonalLoop=1;jettySize=auto;html=1;exitX=0.5;exitY=1;exitDx=0;exitDy=0;entryX=0.5;entryY=0;entryDx=0;entryDy=0;fontFamily=Helvetica;fontSize=12;fontColor=default;labelBackgroundColor=#ffffff;resizable=0;" edge="1" parent="1" source="zcGV5km0rDXlHKQMvc85-142" target="zcGV5km0rDXlHKQMvc85-143">
          <mxGeometry relative="1" as="geometry" />
        </mxCell>
        <mxCell id="zcGV5km0rDXlHKQMvc85-146" style="edgeStyle=orthogonalEdgeStyle;rounded=0;orthogonalLoop=1;jettySize=auto;html=1;exitX=0.5;exitY=1;exitDx=0;exitDy=0;fontFamily=Helvetica;fontSize=12;fontColor=default;labelBackgroundColor=#ffffff;resizable=0;" edge="1" parent="1" source="zcGV5km0rDXlHKQMvc85-142" target="zcGV5km0rDXlHKQMvc85-145">
          <mxGeometry relative="1" as="geometry" />
        </mxCell>
        <mxCell id="zcGV5km0rDXlHKQMvc85-142" value="Base model" style="rounded=0;whiteSpace=wrap;html=1;snapToPoint=1;points=[[0.1,0],[0.2,0],[0.3,0],[0.4,0],[0.5,0],[0.6,0],[0.7,0],[0.8,0],[0.9,0],[0,0.1],[0,0.3],[0,0.5],[0,0.7],[0,0.9],[0.1,1],[0.2,1],[0.3,1],[0.4,1],[0.5,1],[0.6,1],[0.7,1],[0.8,1],[0.9,1],[1,0.1],[1,0.3],[1,0.5],[1,0.7],[1,0.9]];" vertex="1" parent="1">
          <mxGeometry x="8340" y="6840" width="120" height="30" as="geometry" />
        </mxCell>
        <mxCell id="zcGV5km0rDXlHKQMvc85-143" value="Transformer" style="rounded=0;whiteSpace=wrap;html=1;snapToPoint=1;points=[[0.1,0],[0.2,0],[0.3,0],[0.4,0],[0.5,0],[0.6,0],[0.7,0],[0.8,0],[0.9,0],[0,0.1],[0,0.3],[0,0.5],[0,0.7],[0,0.9],[0.1,1],[0.2,1],[0.3,1],[0.4,1],[0.5,1],[0.6,1],[0.7,1],[0.8,1],[0.9,1],[1,0.1],[1,0.3],[1,0.5],[1,0.7],[1,0.9]];" vertex="1" parent="1">
          <mxGeometry x="8020" y="6910" width="120" height="30" as="geometry" />
        </mxCell>
        <mxCell id="zcGV5km0rDXlHKQMvc85-145" value="Decoder-only" style="rounded=0;whiteSpace=wrap;html=1;snapToPoint=1;points=[[0.1,0],[0.2,0],[0.3,0],[0.4,0],[0.5,0],[0.6,0],[0.7,0],[0.8,0],[0.9,0],[0,0.1],[0,0.3],[0,0.5],[0,0.7],[0,0.9],[0.1,1],[0.2,1],[0.3,1],[0.4,1],[0.5,1],[0.6,1],[0.7,1],[0.8,1],[0.9,1],[1,0.1],[1,0.3],[1,0.5],[1,0.7],[1,0.9]];" vertex="1" parent="1">
          <mxGeometry x="8400" y="6910" width="120" height="30" as="geometry" />
        </mxCell>
        <mxCell id="zcGV5km0rDXlHKQMvc85-147" value="subclass" style="text;strokeColor=none;fillColor=none;html=1;fontSize=12;fontStyle=0;verticalAlign=middle;align=center;fontFamily=Helvetica;fontColor=#000000;labelBackgroundColor=#ffffff;resizable=0;" vertex="1" parent="1">
          <mxGeometry x="8350" y="6860" width="100" height="40" as="geometry" />
        </mxCell>
        <mxCell id="zcGV5km0rDXlHKQMvc85-151" style="edgeStyle=orthogonalEdgeStyle;rounded=0;orthogonalLoop=1;jettySize=auto;html=1;exitX=0;exitY=0.5;exitDx=0;exitDy=0;entryX=0.5;entryY=1;entryDx=0;entryDy=0;fontFamily=Helvetica;fontSize=12;fontColor=default;labelBackgroundColor=#ffffff;resizable=0;" edge="1" parent="1" source="zcGV5km0rDXlHKQMvc85-149" target="zcGV5km0rDXlHKQMvc85-145">
          <mxGeometry relative="1" as="geometry" />
        </mxCell>
        <mxCell id="zcGV5km0rDXlHKQMvc85-149" value="&lt;font color=&quot;#000000&quot;&gt;has_model_&lt;/font&gt;&lt;div&gt;&lt;font color=&quot;#000000&quot;&gt;architecture&lt;/font&gt;&lt;/div&gt;" style="shape=rhombus;perimeter=rhombusPerimeter;whiteSpace=wrap;html=1;align=center;verticalAlign=middle;fontFamily=Helvetica;fontSize=12;fontColor=default;labelBackgroundColor=#ffffff;resizable=0;fillColor=none;gradientColor=none;" vertex="1" parent="1">
          <mxGeometry x="8500" y="6950" width="120" height="60" as="geometry" />
        </mxCell>
        <mxCell id="zcGV5km0rDXlHKQMvc85-154" style="edgeStyle=orthogonalEdgeStyle;rounded=0;orthogonalLoop=1;jettySize=auto;html=1;exitX=0;exitY=0.5;exitDx=0;exitDy=0;entryX=0.5;entryY=1;entryDx=0;entryDy=0;fontFamily=Helvetica;fontSize=12;fontColor=default;labelBackgroundColor=#ffffff;resizable=0;" edge="1" parent="1" source="zcGV5km0rDXlHKQMvc85-152" target="zcGV5km0rDXlHKQMvc85-143">
          <mxGeometry relative="1" as="geometry" />
        </mxCell>
        <mxCell id="zcGV5km0rDXlHKQMvc85-152" value="&lt;font color=&quot;#000000&quot;&gt;has_model_&lt;/font&gt;&lt;div&gt;&lt;font color=&quot;#000000&quot;&gt;architecture&lt;/font&gt;&lt;/div&gt;" style="shape=rhombus;perimeter=rhombusPerimeter;whiteSpace=wrap;html=1;align=center;verticalAlign=middle;fontFamily=Helvetica;fontSize=12;fontColor=default;labelBackgroundColor=#ffffff;resizable=0;fillColor=none;gradientColor=none;" vertex="1" parent="1">
          <mxGeometry x="8040" y="7040" width="120" height="60" as="geometry" />
        </mxCell>
        <mxCell id="zcGV5km0rDXlHKQMvc85-157" style="edgeStyle=orthogonalEdgeStyle;rounded=0;orthogonalLoop=1;jettySize=auto;html=1;exitX=0;exitY=0.5;exitDx=0;exitDy=0;entryX=0.1;entryY=1;entryDx=0;entryDy=0;fontFamily=Helvetica;fontSize=12;fontColor=default;labelBackgroundColor=#ffffff;resizable=0;" edge="1" parent="1" source="zcGV5km0rDXlHKQMvc85-155" target="zcGV5km0rDXlHKQMvc85-143">
          <mxGeometry relative="1" as="geometry" />
        </mxCell>
        <mxCell id="zcGV5km0rDXlHKQMvc85-155" value="has_model_&lt;div&gt;architecture&lt;/div&gt;" style="shape=rhombus;perimeter=rhombusPerimeter;whiteSpace=wrap;html=1;align=center;verticalAlign=middle;fontFamily=Helvetica;fontSize=12;fontColor=#000000;labelBackgroundColor=#ffffff;resizable=0;fillColor=none;gradientColor=none;" vertex="1" parent="1">
          <mxGeometry x="8740" y="7310" width="120" height="60" as="geometry" />
        </mxCell>
        <mxCell id="zcGV5km0rDXlHKQMvc85-162" style="edgeStyle=orthogonalEdgeStyle;rounded=0;orthogonalLoop=1;jettySize=auto;html=1;exitX=0;exitY=0.5;exitDx=0;exitDy=0;entryX=0;entryY=0.9;entryDx=0;entryDy=0;fontFamily=Helvetica;fontSize=12;fontColor=default;labelBackgroundColor=#ffffff;resizable=0;" edge="1" parent="1" source="zcGV5km0rDXlHKQMvc85-158" target="zcGV5km0rDXlHKQMvc85-143">
          <mxGeometry relative="1" as="geometry" />
        </mxCell>
        <mxCell id="zcGV5km0rDXlHKQMvc85-158" value="&lt;font color=&quot;#000000&quot;&gt;has_model_&lt;/font&gt;&lt;div&gt;&lt;font color=&quot;#000000&quot;&gt;architecture&lt;/font&gt;&lt;/div&gt;" style="shape=rhombus;perimeter=rhombusPerimeter;whiteSpace=wrap;html=1;align=center;verticalAlign=middle;fontFamily=Helvetica;fontSize=12;fontColor=default;labelBackgroundColor=#ffffff;resizable=0;fillColor=none;gradientColor=none;" vertex="1" parent="1">
          <mxGeometry x="9020" y="7380" width="120" height="60" as="geometry" />
        </mxCell>
        <mxCell id="zcGV5km0rDXlHKQMvc85-166" style="edgeStyle=orthogonalEdgeStyle;rounded=0;orthogonalLoop=1;jettySize=auto;html=1;exitX=0;exitY=0.5;exitDx=0;exitDy=0;entryX=1;entryY=0.5;entryDx=0;entryDy=0;fontFamily=Helvetica;fontSize=12;fontColor=default;labelBackgroundColor=#ffffff;resizable=0;" edge="1" parent="1" source="zcGV5km0rDXlHKQMvc85-163" target="zcGV5km0rDXlHKQMvc85-165">
          <mxGeometry relative="1" as="geometry" />
        </mxCell>
        <mxCell id="zcGV5km0rDXlHKQMvc85-168" style="edgeStyle=orthogonalEdgeStyle;rounded=0;orthogonalLoop=1;jettySize=auto;html=1;exitX=0;exitY=0.5;exitDx=0;exitDy=0;entryX=1;entryY=0.5;entryDx=0;entryDy=0;fontFamily=Helvetica;fontSize=12;fontColor=default;labelBackgroundColor=#ffffff;resizable=0;" edge="1" parent="1" source="zcGV5km0rDXlHKQMvc85-163" target="zcGV5km0rDXlHKQMvc85-167">
          <mxGeometry relative="1" as="geometry" />
        </mxCell>
        <mxCell id="zcGV5km0rDXlHKQMvc85-170" style="edgeStyle=orthogonalEdgeStyle;rounded=0;orthogonalLoop=1;jettySize=auto;html=1;exitX=0;exitY=0.5;exitDx=0;exitDy=0;entryX=1;entryY=0.5;entryDx=0;entryDy=0;fontFamily=Helvetica;fontSize=12;fontColor=default;labelBackgroundColor=#ffffff;resizable=0;" edge="1" parent="1" source="zcGV5km0rDXlHKQMvc85-163" target="zcGV5km0rDXlHKQMvc85-169">
          <mxGeometry relative="1" as="geometry" />
        </mxCell>
        <mxCell id="zcGV5km0rDXlHKQMvc85-172" style="edgeStyle=orthogonalEdgeStyle;rounded=0;orthogonalLoop=1;jettySize=auto;html=1;exitX=0;exitY=0.5;exitDx=0;exitDy=0;entryX=1;entryY=0.5;entryDx=0;entryDy=0;fontFamily=Helvetica;fontSize=12;fontColor=default;labelBackgroundColor=#ffffff;resizable=0;" edge="1" parent="1" source="zcGV5km0rDXlHKQMvc85-163" target="zcGV5km0rDXlHKQMvc85-171">
          <mxGeometry relative="1" as="geometry" />
        </mxCell>
        <mxCell id="zcGV5km0rDXlHKQMvc85-174" style="edgeStyle=orthogonalEdgeStyle;rounded=0;orthogonalLoop=1;jettySize=auto;html=1;exitX=0;exitY=0.5;exitDx=0;exitDy=0;entryX=1;entryY=0.5;entryDx=0;entryDy=0;fontFamily=Helvetica;fontSize=12;fontColor=default;labelBackgroundColor=#ffffff;resizable=0;" edge="1" parent="1" source="zcGV5km0rDXlHKQMvc85-163" target="zcGV5km0rDXlHKQMvc85-173">
          <mxGeometry relative="1" as="geometry" />
        </mxCell>
        <mxCell id="zcGV5km0rDXlHKQMvc85-163" value="Capability" style="rounded=0;whiteSpace=wrap;html=1;snapToPoint=1;points=[[0.1,0],[0.2,0],[0.3,0],[0.4,0],[0.5,0],[0.6,0],[0.7,0],[0.8,0],[0.9,0],[0,0.1],[0,0.3],[0,0.5],[0,0.7],[0,0.9],[0.1,1],[0.2,1],[0.3,1],[0.4,1],[0.5,1],[0.6,1],[0.7,1],[0.8,1],[0.9,1],[1,0.1],[1,0.3],[1,0.5],[1,0.7],[1,0.9]];" vertex="1" parent="1">
          <mxGeometry x="7740" y="6755" width="120" height="30" as="geometry" />
        </mxCell>
        <mxCell id="zcGV5km0rDXlHKQMvc85-165" value="Audio generation" style="rounded=0;whiteSpace=wrap;html=1;snapToPoint=1;points=[[0.1,0],[0.2,0],[0.3,0],[0.4,0],[0.5,0],[0.6,0],[0.7,0],[0.8,0],[0.9,0],[0,0.1],[0,0.3],[0,0.5],[0,0.7],[0,0.9],[0.1,1],[0.2,1],[0.3,1],[0.4,1],[0.5,1],[0.6,1],[0.7,1],[0.8,1],[0.9,1],[1,0.1],[1,0.3],[1,0.5],[1,0.7],[1,0.9]];" vertex="1" parent="1">
          <mxGeometry x="7410" y="6580" width="120" height="30" as="geometry" />
        </mxCell>
        <mxCell id="zcGV5km0rDXlHKQMvc85-167" value="Text generation" style="rounded=0;whiteSpace=wrap;html=1;snapToPoint=1;points=[[0.1,0],[0.2,0],[0.3,0],[0.4,0],[0.5,0],[0.6,0],[0.7,0],[0.8,0],[0.9,0],[0,0.1],[0,0.3],[0,0.5],[0,0.7],[0,0.9],[0.1,1],[0.2,1],[0.3,1],[0.4,1],[0.5,1],[0.6,1],[0.7,1],[0.8,1],[0.9,1],[1,0.1],[1,0.3],[1,0.5],[1,0.7],[1,0.9]];" vertex="1" parent="1">
          <mxGeometry x="7410" y="6650" width="120" height="30" as="geometry" />
        </mxCell>
        <mxCell id="zcGV5km0rDXlHKQMvc85-169" value="Code generation" style="rounded=0;whiteSpace=wrap;html=1;snapToPoint=1;points=[[0.1,0],[0.2,0],[0.3,0],[0.4,0],[0.5,0],[0.6,0],[0.7,0],[0.8,0],[0.9,0],[0,0.1],[0,0.3],[0,0.5],[0,0.7],[0,0.9],[0.1,1],[0.2,1],[0.3,1],[0.4,1],[0.5,1],[0.6,1],[0.7,1],[0.8,1],[0.9,1],[1,0.1],[1,0.3],[1,0.5],[1,0.7],[1,0.9]];" vertex="1" parent="1">
          <mxGeometry x="7410" y="6710" width="120" height="30" as="geometry" />
        </mxCell>
        <mxCell id="zcGV5km0rDXlHKQMvc85-171" value="Image generation" style="rounded=0;whiteSpace=wrap;html=1;snapToPoint=1;points=[[0.1,0],[0.2,0],[0.3,0],[0.4,0],[0.5,0],[0.6,0],[0.7,0],[0.8,0],[0.9,0],[0,0.1],[0,0.3],[0,0.5],[0,0.7],[0,0.9],[0.1,1],[0.2,1],[0.3,1],[0.4,1],[0.5,1],[0.6,1],[0.7,1],[0.8,1],[0.9,1],[1,0.1],[1,0.3],[1,0.5],[1,0.7],[1,0.9]];" vertex="1" parent="1">
          <mxGeometry x="7420" y="6790" width="120" height="30" as="geometry" />
        </mxCell>
        <mxCell id="zcGV5km0rDXlHKQMvc85-173" value="Video generation" style="rounded=0;whiteSpace=wrap;html=1;snapToPoint=1;points=[[0.1,0],[0.2,0],[0.3,0],[0.4,0],[0.5,0],[0.6,0],[0.7,0],[0.8,0],[0.9,0],[0,0.1],[0,0.3],[0,0.5],[0,0.7],[0,0.9],[0.1,1],[0.2,1],[0.3,1],[0.4,1],[0.5,1],[0.6,1],[0.7,1],[0.8,1],[0.9,1],[1,0.1],[1,0.3],[1,0.5],[1,0.7],[1,0.9]];" vertex="1" parent="1">
          <mxGeometry x="7430" y="6860" width="120" height="30" as="geometry" />
        </mxCell>
        <mxCell id="zcGV5km0rDXlHKQMvc85-175" value="subclass" style="text;strokeColor=none;fillColor=none;html=1;fontSize=12;fontStyle=0;verticalAlign=middle;align=center;fontFamily=Helvetica;fontColor=#000000;labelBackgroundColor=#ffffff;resizable=0;" vertex="1" parent="1">
          <mxGeometry x="8260" y="6770" width="100" height="40" as="geometry" />
        </mxCell>
        <mxCell id="zcGV5km0rDXlHKQMvc85-176" value="subclass" style="text;strokeColor=none;fillColor=none;html=1;fontSize=12;fontStyle=0;verticalAlign=middle;align=center;fontFamily=Helvetica;fontColor=#000000;labelBackgroundColor=#ffffff;resizable=0;" vertex="1" parent="1">
          <mxGeometry x="7640" y="6740" width="100" height="40" as="geometry" />
        </mxCell>
        <mxCell id="zcGV5km0rDXlHKQMvc85-179" style="edgeStyle=orthogonalEdgeStyle;rounded=0;orthogonalLoop=1;jettySize=auto;html=1;exitX=0;exitY=0.5;exitDx=0;exitDy=0;entryX=1;entryY=0.1;entryDx=0;entryDy=0;fontFamily=Helvetica;fontSize=12;fontColor=default;labelBackgroundColor=#ffffff;resizable=0;" edge="1" parent="1" source="zcGV5km0rDXlHKQMvc85-177" target="zcGV5km0rDXlHKQMvc85-167">
          <mxGeometry relative="1" as="geometry" />
        </mxCell>
        <mxCell id="zcGV5km0rDXlHKQMvc85-177" value="has_capability" style="shape=rhombus;perimeter=rhombusPerimeter;whiteSpace=wrap;html=1;align=center;verticalAlign=middle;fontFamily=Helvetica;fontSize=12;fontColor=#000000;labelBackgroundColor=#ffffff;resizable=0;fillColor=none;gradientColor=none;" vertex="1" parent="1">
          <mxGeometry x="7950" y="6600" width="120" height="60" as="geometry" />
        </mxCell>
        <mxCell id="zcGV5km0rDXlHKQMvc85-186" style="edgeStyle=orthogonalEdgeStyle;rounded=0;orthogonalLoop=1;jettySize=auto;html=1;exitX=0;exitY=0.5;exitDx=0;exitDy=0;entryX=0;entryY=0.3;entryDx=0;entryDy=0;fontFamily=Helvetica;fontSize=12;fontColor=default;labelBackgroundColor=#ffffff;resizable=0;" edge="1" parent="1" source="zcGV5km0rDXlHKQMvc85-180" target="zcGV5km0rDXlHKQMvc85-167">
          <mxGeometry relative="1" as="geometry">
            <Array as="points">
              <mxPoint x="7350" y="7510" />
              <mxPoint x="7350" y="6659" />
            </Array>
          </mxGeometry>
        </mxCell>
        <mxCell id="zcGV5km0rDXlHKQMvc85-180" value="&lt;font color=&quot;#000000&quot;&gt;has_capability&lt;/font&gt;" style="shape=rhombus;perimeter=rhombusPerimeter;whiteSpace=wrap;html=1;align=center;verticalAlign=middle;fontFamily=Helvetica;fontSize=12;fontColor=default;labelBackgroundColor=#ffffff;resizable=0;fillColor=none;gradientColor=none;" vertex="1" parent="1">
          <mxGeometry x="8930" y="7480" width="120" height="60" as="geometry" />
        </mxCell>
        <mxCell id="zcGV5km0rDXlHKQMvc85-185" style="edgeStyle=orthogonalEdgeStyle;rounded=0;orthogonalLoop=1;jettySize=auto;html=1;exitX=0;exitY=0.5;exitDx=0;exitDy=0;entryX=0;entryY=0.5;entryDx=0;entryDy=0;fontFamily=Helvetica;fontSize=12;fontColor=default;labelBackgroundColor=#ffffff;resizable=0;" edge="1" parent="1" source="zcGV5km0rDXlHKQMvc85-181" target="zcGV5km0rDXlHKQMvc85-171">
          <mxGeometry relative="1" as="geometry">
            <Array as="points">
              <mxPoint x="7410" y="7480" />
              <mxPoint x="7410" y="6805" />
            </Array>
          </mxGeometry>
        </mxCell>
        <mxCell id="zcGV5km0rDXlHKQMvc85-181" value="has_capability" style="shape=rhombus;perimeter=rhombusPerimeter;whiteSpace=wrap;html=1;align=center;verticalAlign=middle;fontFamily=Helvetica;fontSize=12;fontColor=#000000;labelBackgroundColor=#ffffff;resizable=0;fillColor=none;gradientColor=none;" vertex="1" parent="1">
          <mxGeometry x="8555" y="7450" width="120" height="60" as="geometry" />
        </mxCell>
        <mxCell id="zcGV5km0rDXlHKQMvc85-189" style="edgeStyle=orthogonalEdgeStyle;rounded=0;orthogonalLoop=1;jettySize=auto;html=1;exitX=0.5;exitY=1;exitDx=0;exitDy=0;entryX=0;entryY=0.5;entryDx=0;entryDy=0;fontFamily=Helvetica;fontSize=12;fontColor=default;labelBackgroundColor=#ffffff;resizable=0;" edge="1" parent="1" source="zcGV5km0rDXlHKQMvc85-187" target="zcGV5km0rDXlHKQMvc85-167">
          <mxGeometry relative="1" as="geometry">
            <Array as="points">
              <mxPoint x="9200" y="7710" />
              <mxPoint x="7390" y="7710" />
              <mxPoint x="7390" y="6665" />
            </Array>
          </mxGeometry>
        </mxCell>
        <mxCell id="zcGV5km0rDXlHKQMvc85-187" value="&lt;font color=&quot;#000000&quot;&gt;has_capability&lt;/font&gt;" style="shape=rhombus;perimeter=rhombusPerimeter;whiteSpace=wrap;html=1;align=center;verticalAlign=middle;fontFamily=Helvetica;fontSize=12;fontColor=default;labelBackgroundColor=#ffffff;resizable=0;fillColor=none;gradientColor=none;" vertex="1" parent="1">
          <mxGeometry x="9140" y="7290" width="120" height="60" as="geometry" />
        </mxCell>
        <mxCell id="zcGV5km0rDXlHKQMvc85-192" style="edgeStyle=orthogonalEdgeStyle;rounded=0;orthogonalLoop=1;jettySize=auto;html=1;exitX=0;exitY=0.5;exitDx=0;exitDy=0;entryX=0;entryY=0.5;entryDx=0;entryDy=0;fontFamily=Helvetica;fontSize=12;fontColor=default;labelBackgroundColor=#ffffff;resizable=0;" edge="1" parent="1" source="zcGV5km0rDXlHKQMvc85-190" target="zcGV5km0rDXlHKQMvc85-167">
          <mxGeometry relative="1" as="geometry">
            <Array as="points">
              <mxPoint x="7300" y="7560" />
              <mxPoint x="7300" y="6665" />
            </Array>
          </mxGeometry>
        </mxCell>
        <mxCell id="zcGV5km0rDXlHKQMvc85-190" value="&lt;font color=&quot;#000000&quot;&gt;has_capability&lt;/font&gt;" style="shape=rhombus;perimeter=rhombusPerimeter;whiteSpace=wrap;html=1;align=center;verticalAlign=middle;fontFamily=Helvetica;fontSize=12;fontColor=default;labelBackgroundColor=#ffffff;resizable=0;fillColor=none;gradientColor=none;" vertex="1" parent="1">
          <mxGeometry x="9260" y="7530" width="120" height="60" as="geometry" />
        </mxCell>
      </root>
    </mxGraphModel>
  </diagram>
</mxfile>
